<svg width="40" height="40" viewBox="0 0 40 40" fill="none" xmlns="http://www.w3.org/2000/svg">
<path d="M16.3005 15.8889C19.9824 15.8889 22.9671 12.9041 22.9671 9.22222C22.9671 5.54033 19.9824 2.55556 16.3005 2.55556C12.6186 2.55556 9.63379 5.54033 9.63379 9.22222C9.63379 12.9041 12.6186 15.8889 16.3005 15.8889Z" fill="#152552"/>
<path d="M18.2671 35.3555C17.8999 34.9924 17.6603 34.52 17.5842 34.0092C17.5081 33.4984 17.5995 32.9767 17.8449 32.5222L18.4338 31.4111L17.2227 31.0444C16.7288 30.8899 16.2988 30.5784 15.998 30.1573C15.6972 29.7362 15.542 29.2284 15.556 28.7111V26.4333C15.5551 25.9183 15.7198 25.4166 16.026 25.0024C16.3321 24.5883 16.7633 24.2835 17.256 24.1333L18.4671 23.7667L17.8893 22.6555C17.6512 22.2073 17.5605 21.6953 17.6304 21.1926C17.7002 20.6898 17.9269 20.2219 18.2782 19.8555C17.4234 19.7435 16.5625 19.6841 15.7004 19.6778C13.1541 19.6178 10.626 20.1205 8.29626 21.15C5.96655 22.1794 3.89271 23.7103 2.22266 25.6333V34.2444C2.22266 34.5391 2.33972 34.8217 2.54809 35.0301C2.75647 35.2385 3.03908 35.3555 3.33377 35.3555H18.2671Z" fill="#152552"/>
<path d="M37.4448 26.0667L35.2226 25.4C35.0686 24.8512 34.8524 24.3219 34.5782 23.8222L35.6893 21.7556C35.7322 21.6789 35.7479 21.5899 35.7338 21.5031C35.7197 21.4163 35.6766 21.3369 35.6115 21.2778L34.0004 19.6556C33.9383 19.5952 33.8592 19.5553 33.7738 19.5414C33.6883 19.5275 33.6006 19.5402 33.5226 19.5778L31.4671 20.6889C30.9611 20.414 30.4288 20.1907 29.8782 20.0222L29.2004 17.8C29.1706 17.7181 29.1161 17.6474 29.0445 17.5976C28.9729 17.5479 28.8876 17.5216 28.8004 17.5222H26.4893C26.4026 17.5246 26.3189 17.5537 26.2493 17.6054C26.1797 17.657 26.1277 17.7289 26.1004 17.8111L25.4337 20.0333C24.8724 20.1966 24.3318 20.4241 23.8226 20.7111L21.8115 19.6C21.7333 19.5585 21.644 19.5425 21.5563 19.5545C21.4686 19.5665 21.3868 19.6057 21.3226 19.6667L19.6893 21.2667C19.625 21.3287 19.5826 21.4099 19.5686 21.4981C19.5545 21.5863 19.5696 21.6767 19.6115 21.7556L20.7226 23.7778C20.425 24.2797 20.1828 24.8124 20.0004 25.3667L17.7782 26.0445C17.6941 26.0688 17.6203 26.1199 17.5682 26.1902C17.516 26.2604 17.4883 26.3458 17.4893 26.4333V28.7111C17.4883 28.7986 17.516 28.884 17.5682 28.9543C17.6203 29.0245 17.6941 29.0757 17.7782 29.1L20.0004 29.7778C20.167 30.322 20.3904 30.8471 20.6671 31.3445L19.556 33.4556C19.514 33.5344 19.499 33.6248 19.513 33.713C19.527 33.8012 19.5694 33.8825 19.6337 33.9445L21.2893 35.5556C21.3535 35.6165 21.4352 35.6558 21.523 35.6677C21.6107 35.6797 21.7 35.6638 21.7782 35.6222L23.856 34.5111C24.3504 34.7771 24.8719 34.9894 25.4115 35.1445L26.0782 37.4222C26.1061 37.5062 26.1598 37.5793 26.2316 37.6312C26.3034 37.683 26.3896 37.711 26.4782 37.7111H28.7559C28.8426 37.7087 28.9264 37.6797 28.9959 37.628C29.0655 37.5763 29.1175 37.5045 29.1448 37.4222L29.8115 35.1445C30.3447 34.9913 30.859 34.7789 31.3448 34.5111L33.4448 35.6222C33.523 35.6638 33.6123 35.6797 33.7 35.6677C33.7878 35.6558 33.8695 35.6165 33.9337 35.5556L35.556 33.9445C35.6169 33.8802 35.6562 33.7985 35.6681 33.7108C35.6801 33.623 35.6642 33.5338 35.6226 33.4556L34.5115 31.3667C34.7773 30.8799 34.9896 30.3658 35.1448 29.8333L37.3671 29.1556C37.4505 29.1287 37.5239 29.0772 37.5775 29.0077C37.631 28.9383 37.6623 28.8542 37.6671 28.7667V26.4667C37.6698 26.3861 37.6505 26.3063 37.6114 26.2359C37.5722 26.1654 37.5147 26.1069 37.4448 26.0667ZM27.6337 31.3111C26.8993 31.3133 26.1807 31.0975 25.5689 30.6911C24.9572 30.2846 24.4798 29.7058 24.1972 29.0279C23.9146 28.35 23.8395 27.6035 23.9815 26.8828C24.1234 26.1622 24.476 25.4999 24.9945 24.9798C25.5131 24.4597 26.1743 24.1051 26.8945 23.961C27.6147 23.8169 28.3615 23.8898 29.0402 24.1703C29.719 24.4509 30.2992 24.9265 30.7075 25.5371C31.1158 26.1476 31.3337 26.8655 31.3337 27.6C31.3337 28.5823 30.9443 29.5246 30.2507 30.2202C29.5571 30.9159 28.6161 31.3082 27.6337 31.3111Z" fill="#152552"/>
</svg>
