<svg width="15" height="20" viewBox="0 0 15 20" xmlns="http://www.w3.org/2000/svg" fill="#273b69">
<path d="M8.64254 1.25001C8.64226 0.978745 8.73193 0.714772 8.89799 0.498008C9.06406 0.281243 9.29747 0.123475 9.56295 0.0485632C9.82843 -0.026349 10.1115 -0.0143311 10.3694 0.0827992C10.6273 0.17993 10.846 0.35689 10.9924 0.586918L14.4104 3.94356C14.5285 4.05958 14.6221 4.1973 14.686 4.34886C14.7498 4.50042 14.7827 4.66285 14.7826 4.82687C14.7826 4.99089 14.7496 5.15329 14.6856 5.30481C14.6217 5.45632 14.5279 5.59398 14.4098 5.70992C14.2916 5.82586 14.1514 5.91781 13.9971 5.98052C13.8427 6.04324 13.6773 6.07549 13.5103 6.07543C13.3433 6.07537 13.1779 6.04301 13.0236 5.98019C12.8694 5.91736 12.7292 5.82531 12.6111 5.70929L11.187 4.30944V13.7375C11.187 14.0687 11.053 14.3863 10.8145 14.6205C10.5761 14.8547 10.2526 14.9863 9.91539 14.9863C9.57814 14.9863 9.25471 14.8547 9.01625 14.6205C8.77778 14.3863 8.64381 14.0687 8.64381 13.7375L8.64254 1.25001ZM6.14007 18.75C6.14035 19.0213 6.05068 19.2852 5.88462 19.502C5.71855 19.7188 5.48513 19.8765 5.21966 19.9514C4.95418 20.0263 4.67108 20.0143 4.41318 19.9172C4.15528 19.8201 3.93659 19.6431 3.7902 19.4131L0.372194 16.0564C0.133763 15.8221 -0.000119154 15.5044 7.95724e-08 15.1731C0.000119313 14.8419 0.134231 14.5242 0.37283 14.2901C0.61143 14.0559 0.934973 13.9245 1.27229 13.9246C1.6096 13.9247 1.93305 14.0564 2.17148 14.2907L3.59564 15.6906V6.26249C3.59564 5.9313 3.72961 5.61368 3.96808 5.37949C4.20655 5.1453 4.52998 5.01374 4.86722 5.01374C5.20447 5.01374 5.5279 5.1453 5.76636 5.37949C6.00483 5.61368 6.1388 5.9313 6.1388 6.26249L6.14007 18.75Z" />
</svg>
