<svg width="31" height="36" viewBox="0 0 31 36" fill="none" xmlns="http://www.w3.org/2000/svg">
<path d="M4.00033 0.333328C2.15033 0.333328 0.666992 1.81666 0.666992 3.66666V30.3333C0.666992 31.2174 1.01818 32.0652 1.6433 32.6903C2.26842 33.3155 3.11627 33.6667 4.00033 33.6667H10.667V30.4833L14.1503 27H4.00033V23.6667H17.4837L20.817 20.3333H4.00033V17H24.1503L27.3337 13.8167V10.3333L17.3337 0.333328H4.00033ZM15.667 2.83333L24.8337 12H15.667V2.83333ZM27.5837 18.6667C27.4603 18.664 27.3377 18.6862 27.2231 18.732C27.1086 18.7778 27.0044 18.8463 26.917 18.9333L25.217 20.6333L28.7003 24.1L30.4003 22.4167C30.7503 22.05 30.7503 21.45 30.4003 21.1L28.2337 18.9333C28.1485 18.8479 28.0472 18.7803 27.9355 18.7345C27.8239 18.6887 27.7043 18.6656 27.5837 18.6667ZM24.2337 21.6167L14.0003 31.8667V35.3333H17.467L27.717 25.0833L24.2337 21.6167Z" fill="#152552"/>
</svg>
