<svg width="34" height="40" viewBox="0 0 34 40" fill="none" xmlns="http://www.w3.org/2000/svg">
<path d="M22.4815 24.4615C22.2369 24.3815 20.6907 23.6846 21.6569 20.7477H21.643C24.1615 18.1538 26.0861 13.98 26.0861 9.87077C26.0861 3.55231 21.8846 0.239998 17.0015 0.239998C12.1154 0.239998 7.93689 3.55077 7.93689 9.87077C7.93689 13.9969 9.85074 18.1877 12.3846 20.7754C13.3723 23.3662 11.6061 24.3277 11.2369 24.4615C6.12305 26.3123 0.123047 29.6831 0.123047 33.0108V34.2585C0.123047 38.7923 8.91382 39.8231 17.0492 39.8231C25.1969 39.8231 33.8769 38.7923 33.8769 34.2585V33.0108C33.8769 29.5831 27.8477 26.2385 22.4815 24.4615ZM13.9954 37.86C13.9954 33.9385 16.4923 28.6446 16.4923 28.6446L14.7646 27.2892C14.7646 25.9938 17 24.6385 17 24.6385C17 24.6385 19.2292 26.0154 19.2292 27.2892L17.5077 28.6446C17.5077 28.6446 20.0046 33.9185 20.0046 37.9031C20.0046 38.5277 13.9954 38.3831 13.9954 37.86Z" fill="#152552"/>
</svg>
