<svg width="34" height="19" viewBox="0 0 34 19" fill="none" xmlns="http://www.w3.org/2000/svg">
<path d="M16.2661 10.7061L2.40623 18.7826C1.33145 19.4017 0 18.6243 0 17.3862V1.62177C0 0.369257 1.33145 -0.408166 2.40623 0.225289L16.2661 8.30184C17.2446 8.86331 17.2446 10.1302 16.2661 10.7061Z" fill="#273B69"/>
<path d="M25.1189 19H22.8811C22.3965 19 22 18.3493 22 17.554V1.44597C22 0.650685 22.3965 0 22.8811 0H25.1189C25.6035 0 26 0.650685 26 1.44597V17.554C26 18.3493 25.6123 19 25.1189 19Z" fill="#273B69"/>
<path d="M33.1189 19H30.8811C30.3965 19 30 18.3493 30 17.554V1.44597C30 0.650685 30.3965 0 30.8811 0H33.1189C33.6035 0 34 0.650685 34 1.44597V17.554C34 18.3493 33.6035 19 33.1189 19Z" fill="#273B69"/>
</svg>
