<svg width="45" height="40" viewBox="0 0 45 40" fill="none" xmlns="http://www.w3.org/2000/svg">
<path d="M42.2222 8.88889H28.8889C28.2995 8.88889 27.7343 9.12302 27.3175 9.53976C26.9008 9.95651 26.6667 10.5217 26.6667 11.1111V17.7778H22.2222V2.22222C22.2222 1.63285 21.9881 1.06762 21.5713 0.650874C21.1546 0.234126 20.5894 0 20 0H2.22222C1.63285 0 1.06762 0.234126 0.650874 0.650874C0.234126 1.06762 0 1.63285 0 2.22222V37.7778C0 38.3671 0.234126 38.9324 0.650874 39.3491C1.06762 39.7659 1.63285 40 2.22222 40H42.2222C42.8116 40 43.3768 39.7659 43.7936 39.3491C44.2103 38.9324 44.4444 38.3671 44.4444 37.7778V11.1111C44.4444 10.5217 44.2103 9.95651 43.7936 9.53976C43.3768 9.12302 42.8116 8.88889 42.2222 8.88889ZM13.3333 6.66667H17.7778V11.1111H13.3333V6.66667ZM8.88889 28.8889H4.44444V24.4444H8.88889V28.8889ZM8.88889 20H4.44444V15.5556H8.88889V20ZM8.88889 11.1111H4.44444V6.66667H8.88889V11.1111ZM17.7778 28.8889H13.3333V24.4444H17.7778V28.8889ZM17.7778 20H13.3333V15.5556H17.7778V20ZM37.7778 28.8889H33.3333V24.4444H37.7778V28.8889ZM37.7778 20H33.3333V15.5556H37.7778V20Z" fill="#273B69"/>
</svg>
