<svg width="24" height="24" viewBox="0 0 24 24" fill="#273B69" xmlns="http://www.w3.org/2000/svg">
<path d="M17.7131 11.4256C19.3805 11.4256 20.9796 12.088 22.1586 13.2671C23.3376 14.4461 24 16.0453 24 17.7128C24 19.3803 23.3376 20.9794 22.1586 22.1585C20.9796 23.3376 19.3805 24 17.7131 24C16.0457 24 14.4466 23.3376 13.2676 22.1585C12.0885 20.9794 11.4262 19.3803 11.4262 17.7128C11.4262 16.0453 12.0885 14.4461 13.2676 13.2671C14.4466 12.088 16.0457 11.4256 17.7131 11.4256ZM11.4525 13.7118C10.6872 14.9058 10.2813 16.2946 10.2831 17.7128C10.2831 19.5921 10.9804 21.3091 12.1315 22.6168C11.2147 22.7791 10.2168 22.858 9.14003 22.858C5.83654 22.858 3.27834 22.1081 1.49286 20.5718C1.02458 20.1693 0.648752 19.6705 0.391095 19.1094C0.133437 18.5483 2.97561e-05 17.9381 0 17.3207V16.2839C0 15.6017 0.270969 14.9475 0.753297 14.4652C1.23563 13.9828 1.8898 13.7118 2.57192 13.7118H11.4525ZM14.9617 14.8161L14.8828 14.8824L14.8165 14.9624C14.7507 15.0579 14.7154 15.1711 14.7154 15.2871C14.7154 15.403 14.7507 15.5163 14.8165 15.6117L14.8828 15.6917L16.9061 17.7139L14.8863 19.7338L14.82 19.8127C14.7538 19.9083 14.7184 20.0217 14.7184 20.1379C14.7184 20.2541 14.7538 20.3676 14.82 20.4632L14.8863 20.542L14.9651 20.6083C15.0607 20.6745 15.1741 20.7099 15.2903 20.7099C15.4065 20.7099 15.52 20.6745 15.6155 20.6083L15.6944 20.542L17.7142 18.5221L19.7363 20.5455L19.8152 20.6106C19.9108 20.6767 20.0242 20.7122 20.1404 20.7122C20.2566 20.7122 20.3701 20.6767 20.4656 20.6106L20.5445 20.5443L20.6108 20.4643C20.6767 20.3689 20.7119 20.2556 20.7119 20.1397C20.7119 20.0237 20.6767 19.9105 20.6108 19.815L20.5445 19.7361L18.5212 17.7128L20.5479 15.6917L20.6142 15.6117C20.6801 15.5163 20.7154 15.403 20.7154 15.2871C20.7154 15.1711 20.6801 15.0579 20.6142 14.9624L20.5479 14.8824L20.4679 14.8172C20.3725 14.7514 20.2592 14.7161 20.1433 14.7161C20.0273 14.7161 19.9141 14.7514 19.8186 14.8172L19.7386 14.8824L17.7142 16.9057L15.691 14.8824L15.6121 14.8172C15.5307 14.761 15.4361 14.7268 15.3375 14.718C15.239 14.7091 15.1398 14.726 15.0497 14.7669L14.9617 14.8161ZM9.14003 0C9.89058 -1.11847e-08 10.6338 0.147839 11.3272 0.435077C12.0206 0.722316 12.6507 1.14333 13.1814 1.67407C13.7121 2.20482 14.1331 2.83491 14.4203 3.52836C14.7076 4.22182 14.8554 4.96506 14.8554 5.71565C14.8554 6.46624 14.7076 7.20948 14.4203 7.90293C14.1331 8.59638 13.7121 9.22647 13.1814 9.75722C12.6507 10.288 12.0206 10.709 11.3272 10.9962C10.6338 11.2835 9.89058 11.4313 9.14003 11.4313C7.62422 11.4313 6.17049 10.8291 5.09865 9.75722C4.02681 8.68533 3.42465 7.23153 3.42465 5.71565C3.42465 4.19976 4.02681 2.74597 5.09865 1.67407C6.17049 0.602182 7.62422 0 9.14003 0Z" />
</svg>
