<svg width="22" height="24" viewBox="0 0 22 24" fill="#273B69" xmlns="http://www.w3.org/2000/svg">
<path d="M11.4286 15.1451V24H2.95379e-07C-0.000354416 22.6044 0.318767 21.2273 0.932913 19.9742C1.54706 18.721 2.43993 17.6251 3.54311 16.7703C4.64628 15.9156 5.93049 15.3247 7.29732 15.043C8.66415 14.7613 10.0773 14.7963 11.4286 15.1451ZM9.14286 13.7143C5.35429 13.7143 2.28571 10.6457 2.28571 6.85714C2.28571 3.06857 5.35429 0 9.14286 0C12.9314 0 16 3.06857 16 6.85714C16 10.6457 12.9314 13.7143 9.14286 13.7143ZM16 18.2857V14.8571H18.2857V18.2857H21.7143V20.5714H18.2857V24H16V20.5714H12.5714V18.2857H16Z" />
</svg>
