<svg width="24" height="24" viewBox="0 0 24 24" fill="#273B69" xmlns="http://www.w3.org/2000/svg">
<path d="M17.3333 15.9978C19.0747 15.9978 20.5573 17.111 21.1067 18.6641H22.6667C23.0203 18.6641 23.3594 18.8046 23.6095 19.0546C23.8595 19.3046 24 19.6437 24 19.9973C24 20.3509 23.8595 20.6899 23.6095 20.94C23.3594 21.19 23.0203 21.3304 22.6667 21.3304H21.1067C20.8312 22.111 20.3203 22.787 19.6445 23.2651C18.9687 23.7432 18.1612 24 17.3333 24C16.5054 24 15.6979 23.7432 15.0221 23.2651C14.3463 22.787 13.8355 22.111 13.56 21.3304H1.33333C0.979711 21.3304 0.640573 21.19 0.390524 20.94C0.140476 20.6899 0 20.3509 0 19.9973C0 19.6437 0.140476 19.3046 0.390524 19.0546C0.640573 18.8046 0.979711 18.6641 1.33333 18.6641H13.56C13.836 17.8841 14.3471 17.2089 15.0229 16.7314C15.6986 16.2539 16.5058 15.9976 17.3333 15.9978ZM6.66667 7.99891C7.45199 7.99881 8.21996 8.22984 8.87485 8.66321C9.52973 9.09657 10.0425 9.7131 10.3493 10.4359L10.4387 10.6652H22.6667C23.0065 10.6656 23.3334 10.7957 23.5805 11.029C23.8276 11.2622 23.9763 11.581 23.9962 11.9202C24.0161 12.2594 23.9058 12.5935 23.6876 12.854C23.4695 13.1146 23.1601 13.2821 22.8227 13.3222L22.6667 13.3315H10.44C10.1712 14.0918 9.6789 14.7531 9.02764 15.2288C8.37639 15.7044 7.59658 15.9722 6.79047 15.997C5.98436 16.0218 5.18956 15.8024 4.5103 15.3677C3.83104 14.933 3.29902 14.3031 2.984 13.5608L2.89333 13.3315H1.33333C0.993494 13.3311 0.666624 13.201 0.419509 12.9678C0.172394 12.7345 0.0236867 12.4157 0.00377051 12.0765C-0.0161456 11.7373 0.0942328 11.4033 0.312353 11.1427C0.530474 10.8821 0.839872 10.7147 1.17733 10.6745L1.33333 10.6652H2.89333C3.16935 9.88522 3.68043 9.20997 4.3562 8.73246C5.03197 8.25495 5.83918 7.99867 6.66667 7.99891ZM17.3333 1.66598e-07C19.0747 1.66598e-07 20.5573 1.11318 21.1067 2.6663H22.6667C23.0203 2.6663 23.3594 2.80676 23.6095 3.05678C23.8595 3.30679 24 3.64588 24 3.99946C24 4.35303 23.8595 4.69212 23.6095 4.94214C23.3594 5.19215 23.0203 5.33261 22.6667 5.33261H21.1067C20.8312 6.11321 20.3203 6.78916 19.6445 7.26729C18.9687 7.74542 18.1612 8.00218 17.3333 8.00218C16.5054 8.00218 15.6979 7.74542 15.0221 7.26729C14.3463 6.78916 13.8355 6.11321 13.56 5.33261H1.33333C0.979711 5.33261 0.640573 5.19215 0.390524 4.94214C0.140476 4.69212 0 4.35303 0 3.99946C0 3.64588 0.140476 3.30679 0.390524 3.05678C0.640573 2.80676 0.979711 2.6663 1.33333 2.6663H13.56C13.836 1.88631 14.3471 1.21106 15.0229 0.733553C15.6986 0.256044 16.5058 -0.000238538 17.3333 1.66598e-07Z" />
</svg>
