<svg width="24" height="24" viewBox="0 0 24 24" fill="#273B69" xmlns="http://www.w3.org/2000/svg">
<path d="M11.9132 -0.0285791C11.8742 -0.021541 11.8357 -0.011998 11.7978 -9.39444e-06C11.5894 0.0466253 11.4037 0.163965 11.2722 0.332015C11.1408 0.500065 11.0718 0.708427 11.0769 0.921593V1.8432H2.76923C2.03479 1.8432 1.33042 2.13449 0.811089 2.65299C0.291757 3.17149 0 3.87473 0 4.608L0 16.5888C0 18.115 1.24062 19.3536 2.76923 19.3536H11.0769V19.6992L6.05723 22.2051C5.83543 22.312 5.66526 22.5025 5.58416 22.7347C5.50305 22.967 5.51766 23.2218 5.62477 23.4433C5.73188 23.6647 5.92271 23.8346 6.15528 23.9156C6.38785 23.9966 6.64312 23.982 6.86492 23.875L11.0769 21.7729V22.1185C11.0769 22.3629 11.1742 22.5973 11.3473 22.7701C11.5204 22.943 11.7552 23.0401 12 23.0401C12.2448 23.0401 12.4796 22.943 12.6527 22.7701C12.8258 22.5973 12.9231 22.3629 12.9231 22.1185V21.7729L17.1351 23.875C17.3569 23.982 17.6121 23.9966 17.8447 23.9156C18.0773 23.8346 18.2681 23.6647 18.3752 23.4433C18.4823 23.2218 18.4969 22.967 18.4158 22.7347C18.3347 22.5025 18.1646 22.312 17.9428 22.2051L12.9231 19.6992V19.3536H21.2308C22.7594 19.3536 24 18.115 24 16.5888V4.608C24 3.87473 23.7082 3.17149 23.1889 2.65299C22.6696 2.13449 21.9652 1.8432 21.2308 1.8432H12.9231V0.921593C12.9277 0.790539 12.9043 0.660001 12.8544 0.538701C12.8045 0.4174 12.7293 0.30813 12.6337 0.218191C12.5381 0.128252 12.4244 0.0597156 12.3001 0.0171604C12.1759 -0.0253947 12.044 -0.0409885 11.9132 -0.0285791ZM1.84615 4.608H22.1538V16.5888H1.84615V4.608ZM19.2692 5.52961C19.0625 5.5518 18.8693 5.64305 18.7209 5.78858L15.6923 8.81328L13.5868 6.70926C13.4859 6.60596 13.3622 6.52773 13.2256 6.48087C13.0889 6.43401 12.9432 6.41982 12.8001 6.43946C12.6569 6.45909 12.5204 6.51199 12.4015 6.59391C12.2826 6.67582 12.1846 6.78446 12.1154 6.91109L9.37477 11.6924L8.24954 8.86949C8.1949 8.72374 8.10418 8.59418 7.98584 8.49289C7.8675 8.39159 7.72539 8.32187 7.57278 8.29021C7.42016 8.25856 7.262 8.26601 7.11304 8.31187C6.96408 8.35773 6.82919 8.4405 6.72092 8.55246L3.95169 11.3173C3.86441 11.4043 3.79517 11.5077 3.74791 11.6215C3.70065 11.7353 3.67631 11.8573 3.67626 11.9805C3.67622 12.1037 3.70048 12.2257 3.74766 12.3395C3.79484 12.4533 3.86401 12.5568 3.95123 12.6439C4.03845 12.7311 4.142 12.8002 4.25598 12.8474C4.36996 12.8946 4.49213 12.9189 4.61552 12.9189C4.73891 12.9189 4.8611 12.8947 4.97511 12.8476C5.08912 12.8005 5.19272 12.7315 5.28 12.6444L7.03938 10.8878L8.36677 14.1706C8.42942 14.3352 8.538 14.4785 8.67967 14.5834C8.82134 14.6883 8.99016 14.7505 9.16614 14.7627C9.34213 14.7748 9.5179 14.7363 9.67266 14.6518C9.82742 14.5673 9.95469 14.4402 10.0394 14.2858L13.1262 8.89991L15.0295 10.8012C15.1156 10.8901 15.2187 10.9608 15.3328 11.0091C15.4468 11.0574 15.5694 11.0823 15.6932 11.0823C15.8171 11.0823 15.9397 11.0574 16.0537 11.0091C16.1677 10.9608 16.2708 10.8901 16.3569 10.8012L20.0492 7.11476C20.195 6.97998 20.2934 6.80183 20.3297 6.60677C20.366 6.41171 20.3383 6.21017 20.2506 6.0321C20.163 5.85404 20.0202 5.70896 19.8434 5.61842C19.6666 5.52789 19.4652 5.49674 19.2692 5.52961Z" />
</svg>
