<svg width="24" height="24" viewBox="0 0 24 24" fill="#273B69" xmlns="http://www.w3.org/2000/svg">
<path d="M12 0C9.62663 0 7.30655 0.703788 5.33316 2.02236C3.35977 3.34094 1.8217 5.21508 0.913451 7.4078C0.0051994 9.60051 -0.232441 12.0133 0.230582 14.3411C0.693605 16.6689 1.83649 18.807 3.51472 20.4853C5.19295 22.1635 7.33115 23.3064 9.65892 23.7694C11.9867 24.2324 14.3995 23.9948 16.5922 23.0865C18.7849 22.1783 20.6591 20.6402 21.9776 18.6668C23.2962 16.6934 24 14.3734 24 12C24 8.8174 22.7357 5.76515 20.4853 3.51472C18.2348 1.26428 15.1826 0 12 0ZM17.1429 15.4286C17.1429 15.8832 16.9622 16.3193 16.6408 16.6408C16.3193 16.9622 15.8832 17.1429 15.4286 17.1429H8.57143C8.11678 17.1429 7.68074 16.9622 7.35925 16.6408C7.03776 16.3193 6.85715 15.8832 6.85715 15.4286V8.57143C6.85715 8.11677 7.03776 7.68074 7.35925 7.35924C7.68074 7.03775 8.11678 6.85714 8.57143 6.85714H15.4286C15.8832 6.85714 16.3193 7.03775 16.6408 7.35924C16.9622 7.68074 17.1429 8.11677 17.1429 8.57143V15.4286Z" />
</svg>
