<svg width="35" height="40" viewBox="0 0 35 40" fill="none" xmlns="http://www.w3.org/2000/svg">
<path d="M17.1429 0C21.8786 0 25.7143 3.97778 25.7143 8.88889C25.7143 13.8 21.8786 17.7778 17.1429 17.7778C12.4071 17.7778 8.57143 13.8 8.57143 8.88889C8.57143 3.97778 12.4071 0 17.1429 0ZM25.7143 23.4222C25.7143 25.7778 25.1143 31.2667 21.0214 37.4L19.2857 26.6667L21.3 22.4889C19.9714 22.3333 18.5786 22.2222 17.1429 22.2222C15.7071 22.2222 14.3143 22.3333 12.9857 22.4889L15 26.6667L13.2643 37.4C9.17143 31.2667 8.57143 25.7778 8.57143 23.4222C3.45 24.9778 0 27.7778 0 31.1111V40H34.2857V31.1111C34.2857 27.7778 30.8571 24.9778 25.7143 23.4222Z" fill="#273B69"/>
</svg>
