<svg width="40" height="40" viewBox="0 0 40 40" fill="none" xmlns="http://www.w3.org/2000/svg">
<rect x="12" y="7" width="16" height="26" fill="white"/>
<path d="M13.3333 8.88889V31.1111H17.7778V22.2222H24.4444V17.7778H17.7778V13.3333H26.6667V8.88889H13.3333ZM4.44444 0H35.5556C36.7343 0 37.8648 0.468252 38.6983 1.30175C39.5317 2.13524 40 3.2657 40 4.44444V35.5556C40 36.7343 39.5317 37.8648 38.6983 38.6983C37.8648 39.5317 36.7343 40 35.5556 40H4.44444C3.2657 40 2.13524 39.5317 1.30175 38.6983C0.468252 37.8648 0 36.7343 0 35.5556V4.44444C0 3.2657 0.468252 2.13524 1.30175 1.30175C2.13524 0.468252 3.2657 0 4.44444 0Z" fill="#273B69"/>
</svg>
