<svg width="24" height="31" viewBox="0 0 24 31" fill="none" xmlns="http://www.w3.org/2000/svg" fill="#ccd2e3">
<path d="M24 20V12H16V4L12 0L8 4V6.66667H0V20H24ZM21.3333 17.3333H18.6667V14.6667H21.3333V17.3333ZM10.6667 6.66667V4H13.3333V6.66667H10.6667ZM10.6667 12V9.33333H13.3333V12H10.6667ZM10.6667 17.3333V14.6667H13.3333V17.3333H10.6667ZM5.33333 12H2.66667V9.33333H5.33333V12ZM5.33333 17.3333H2.66667V14.6667H5.33333V17.3333ZM8 22.6667V25.3333H16V22.6667L20 26.6667L16 30.6667V28H8V30.6667L4 26.6667L8 22.6667Z" />
</svg>
