<svg width="24" height="25" viewBox="0 0 24 25" fill="none" xmlns="http://www.w3.org/2000/svg">
<path d="M21.6 25H2.4C1.08 25 0 23.92 0 22.6V10.06C0 9.28003 0.36 8.56002 1.02 8.08002L12 0.400024L22.98 8.08002C23.64 8.50002 24 9.28003 24 10.06V22.6C24 23.92 22.92 25 21.6 25Z" fill="white"/>
<path d="M6 1H18V19.6H6V1Z" fill="#66BB6A"/>
<path d="M5.40002 0.400024V20.2H18.6V0.400024H5.40002ZM17.4 19H6.60002V1.60002H17.4V19Z" fill="#2E7D32"/>
<path d="M18 2.2C18 3.22 17.82 4 16.8 4C15.78 4 15 3.22 15 2.2C15 1.18 15.78 1 16.8 1C17.82 1 18 1.18 18 2.2ZM7.2 1C8.22 1 9 1.18 9 2.2C9 3.22 8.22 4 7.2 4C6.18 4 6 3.22 6 2.2C6 1.18 6.18 1 7.2 1Z" fill="#2E7D32"/>
<path d="M12 6.4C12.6628 6.4 13.2 5.86274 13.2 5.2C13.2 4.53726 12.6628 4 12 4C11.3373 4 10.8 4.53726 10.8 5.2C10.8 5.86274 11.3373 6.4 12 6.4Z" fill="#2E7D32"/>
<path d="M12 16C13.9882 16 15.6 14.3883 15.6 12.4C15.6 10.4118 13.9882 8.80005 12 8.80005C10.0118 8.80005 8.40002 10.4118 8.40002 12.4C8.40002 14.3883 10.0118 16 12 16Z" fill="white"/>
<path d="M12 8.80005C10.012 8.80005 8.40002 10.412 8.40002 12.4C8.40002 14.3881 10.012 16 12 16C13.9881 16 15.6 14.3881 15.6 12.4C15.6 10.412 13.9881 8.80005 12 8.80005ZM12.1792 14.1454L12.1808 14.4001C12.1808 14.4355 12.1519 14.4652 12.1165 14.4652H11.8883C11.853 14.4652 11.824 14.4363 11.824 14.4009V14.1486C11.1105 14.0956 10.7746 13.689 10.7384 13.247C10.7352 13.2092 10.7649 13.1771 10.8027 13.1771H11.174C11.2053 13.1771 11.2326 13.1996 11.2374 13.2301C11.2784 13.4849 11.4769 13.6753 11.8329 13.7227V12.576L11.6344 12.5254C11.2141 12.425 10.814 12.163 10.814 11.6198C10.814 11.034 11.2591 10.719 11.8281 10.6635V10.3984C11.8281 10.363 11.857 10.3341 11.8923 10.3341H12.1181C12.1535 10.3341 12.1824 10.363 12.1824 10.3984V10.6611C12.7329 10.7166 13.1459 11.038 13.1941 11.5386C13.1981 11.5764 13.1684 11.6093 13.1298 11.6093H12.769C12.7369 11.6093 12.7096 11.5852 12.7056 11.5539C12.6734 11.3192 12.4854 11.128 12.1792 11.0862V12.1654L12.3833 12.2128C12.904 12.3414 13.2584 12.5905 13.2584 13.1482C13.2584 13.7533 12.8084 14.0908 12.1792 14.1454ZM11.3138 11.5828C11.3138 11.7869 11.4399 11.9452 11.7115 12.0433C11.7493 12.0585 11.7871 12.0706 11.8321 12.0834V11.087C11.5356 11.1248 11.3138 11.2911 11.3138 11.5828ZM12.2499 12.6692C12.2274 12.6644 12.2049 12.6588 12.1792 12.6516V13.7259C12.5215 13.6954 12.7578 13.5074 12.7578 13.1924C12.7578 12.9457 12.63 12.785 12.2499 12.6692Z" fill="#2E7D32"/>
<path d="M21.6 25H2.4C1.08 25 0 23.92 0 22.6V10.6L12 18.4L24 10.6V22.6C24 23.92 22.92 25 21.6 25Z" fill="#CCD2E3"/>
</svg>
