<svg width="24" height="24" viewBox="0 0 24 24" fill="none" xmlns="http://www.w3.org/2000/svg" fill="#ccd2e3">
<path d="M7.50004 24.0001H2.25002C1.65319 24.0001 1.081 23.763 0.658944 23.3412C0.237065 22.9191 1.29595e-05 22.3469 1.29595e-05 21.7501V5.25004C-0.00115893 5.05065 0.0771905 4.85913 0.21748 4.71749L4.71749 0.217479C4.85912 0.0771904 5.05064 -0.00116128 5.25004 1.30119e-05H15.7501C16.3469 1.30119e-05 16.9191 0.237065 17.3411 0.658944C17.763 1.08099 18.0001 1.65319 18.0001 2.25002V3.75002C18.0001 4.01805 17.8571 4.26564 17.6251 4.39957C17.393 4.5335 17.1071 4.5335 16.8751 4.39957C16.643 4.26564 16.5001 4.01804 16.5001 3.75002V2.25002C16.5001 2.05114 16.4211 1.86028 16.2804 1.71966C16.1398 1.57904 15.949 1.50002 15.7501 1.50002H5.55775L1.5002 5.55757V21.7499C1.5002 21.9488 1.57922 22.1396 1.71984 22.2803C1.86046 22.4209 2.05132 22.4999 2.2502 22.4999H7.50022C7.76824 22.4999 8.01583 22.6429 8.14976 22.8749C8.28369 23.1069 8.28369 23.3929 8.14976 23.6249C8.01583 23.8569 7.76823 23.9999 7.50022 23.9999L7.50004 24.0001Z" />
<path d="M3.75012 6.00025H0.750114C0.482089 6.00025 0.234498 5.85729 0.100569 5.62525C-0.0333602 5.39322 -0.0333602 5.10728 0.100569 4.87525C0.234498 4.64322 0.482097 4.50025 0.750114 4.50025H3.75012C3.94901 4.50025 4.13986 4.42123 4.28048 4.2806C4.42111 4.13998 4.50013 3.94913 4.50013 3.75025V0.750236C4.50013 0.482211 4.64309 0.23462 4.87513 0.100691C5.10716 -0.0332381 5.3931 -0.0332381 5.62513 0.100691C5.85716 0.23462 6.00013 0.482219 6.00013 0.750236V3.75025C6.00013 4.34708 5.76308 4.91926 5.3412 5.34132C4.91915 5.7632 4.34695 6.00025 3.75012 6.00025Z" />
<path d="M15.0001 24.0001C12.6131 24.0001 10.3239 23.0519 8.63619 21.3641C6.94834 19.6762 6.00012 17.387 6.00012 15.0002C6.00012 12.6133 6.94834 10.324 8.63619 8.63631C10.324 6.94846 12.6132 6.00024 15.0001 6.00024C17.3869 6.00024 19.6762 6.94846 21.3639 8.63631C23.0518 10.3242 24 12.6133 24 15.0002C24 17.387 23.0518 19.6763 21.3639 21.3641C19.6761 23.0519 17.3869 24.0001 15.0001 24.0001ZM15.0001 7.50008C13.0109 7.50008 11.1032 8.29028 9.6969 9.69686C8.29033 11.1033 7.50013 13.0109 7.50013 15C7.50013 16.9891 8.29033 18.8969 9.6969 20.3032C11.1033 21.7098 13.011 22.5 15.0001 22.5C16.9892 22.5 18.8969 21.7098 20.3032 20.3032C21.7098 18.8968 22.5 16.9891 22.5 15C22.5 13.6835 22.1535 12.3901 21.4952 11.25C20.837 10.1099 19.8901 9.16307 18.75 8.50478C17.6099 7.84654 16.3166 7.50008 15.0001 7.50008Z" />
<path d="M15.0001 15.7501C14.8012 15.7501 14.6104 15.6711 14.4698 15.5305C14.3291 15.3899 14.2501 15.199 14.2501 15.0001V9.75011C14.2501 9.48209 14.3931 9.2345 14.6251 9.10057C14.8572 8.96664 15.1431 8.96664 15.3751 9.10057C15.6072 9.2345 15.7501 9.4821 15.7501 9.75011V15.0001C15.7501 15.199 15.6711 15.3899 15.5305 15.5305C15.3899 15.6711 15.199 15.7501 15.0001 15.7501Z" />
<path d="M20.2501 15.7501H15.0001C14.7321 15.7501 14.4845 15.6072 14.3506 15.3751C14.2166 15.1431 14.2166 14.8572 14.3506 14.6251C14.4845 14.3931 14.7321 14.2501 15.0001 14.2501H20.2501C20.5182 14.2501 20.7657 14.3931 20.8997 14.6251C21.0336 14.8572 21.0336 15.1431 20.8997 15.3751C20.7657 15.6072 20.5181 15.7501 20.2501 15.7501Z" />
</svg>
