<svg width="24" height="28" viewBox="0 0 24 28" fill="none" xmlns="http://www.w3.org/2000/svg" fill="#ccd2e3">
<path d="M3.42851 18.8571C3.42851 18.1161 3.60708 17.4286 3.96422 16.7946C4.32135 16.1607 4.81688 15.6384 5.4508 15.2277C5.21866 14.9598 5.04009 14.6607 4.91509 14.3304C4.7901 14 4.72313 13.6518 4.7142 13.2857C4.7142 12.875 4.7901 12.4866 4.94188 12.1205C5.09366 11.7545 5.30794 11.4375 5.58472 11.1696C5.8615 10.9018 6.17846 10.6875 6.5356 10.5268C6.89274 10.3661 7.28559 10.2857 7.71415 10.2857C8.12486 10.2857 8.51324 10.3616 8.87931 10.5134C9.24537 10.6652 9.56233 10.8795 9.83019 11.1563C10.098 11.433 10.3123 11.7545 10.473 12.1205C10.6337 12.4866 10.7141 12.875 10.7141 13.2857C10.7141 13.6429 10.6516 13.9866 10.5266 14.317C10.4016 14.6473 10.2186 14.9509 9.9775 15.2277C10.6114 15.6295 11.1069 16.1473 11.4641 16.7813C11.8212 17.4152 11.9998 18.1071 11.9998 18.8571H10.2855C10.2855 18.5 10.2186 18.1652 10.0846 17.8527C9.95072 17.5402 9.76769 17.2679 9.53555 17.0357C9.30341 16.8036 9.03109 16.6205 8.7186 16.4866C8.4061 16.3527 8.07129 16.2857 7.71415 16.2857C7.35701 16.2857 7.0222 16.3527 6.7097 16.4866C6.39721 16.6205 6.12489 16.8036 5.89275 17.0357C5.66062 17.2679 5.47758 17.5446 5.34366 17.8661C5.20973 18.1875 5.14277 18.5179 5.14277 18.8571H3.42851ZM7.71415 12C7.35701 12 7.05345 12.125 6.80345 12.375C6.55346 12.625 6.42846 12.9286 6.42846 13.2857C6.42846 13.6429 6.55346 13.9464 6.80345 14.1964C7.05345 14.4464 7.35701 14.5714 7.71415 14.5714C8.08022 14.5714 8.38378 14.4509 8.62485 14.2098C8.86592 13.9688 8.99091 13.6607 8.99984 13.2857C8.99984 12.9286 8.87485 12.625 8.62485 12.375C8.37485 12.125 8.07129 12 7.71415 12ZM1.71426 22.2857H9.46858L7.75433 24H1.28569C0.928555 24 0.624989 23.875 0.374993 23.625C0.124998 23.375 0 23.0714 0 22.7143V4.71429C0 4.35714 0.124998 4.05357 0.374993 3.80357C0.624989 3.55357 0.928555 3.42857 1.28569 3.42857H4.5401L2.81245 0H4.7276L6.45524 3.42857H8.94627L10.6605 0H12.5757L10.8614 3.42857H14.1426C14.4997 3.42857 14.8033 3.55357 15.0533 3.80357C15.3033 4.05357 15.4283 4.35714 15.4283 4.71429V10.7545C15.1158 10.9241 14.8167 11.1071 14.531 11.3036C14.2453 11.5 13.973 11.7277 13.714 11.9866V5.14286H7.31237C7.36594 5.25893 7.45969 5.4375 7.59362 5.67857C7.72754 5.91964 7.86147 6.17411 7.9954 6.44196C8.12932 6.70982 8.24986 6.95982 8.357 7.19196C8.46414 7.42411 8.51771 7.59821 8.51771 7.71429C8.51771 7.95536 8.43289 8.16071 8.26325 8.33036C8.09361 8.5 7.89272 8.58482 7.66058 8.58482C7.49987 8.58482 7.35255 8.54464 7.21862 8.46429C7.0847 8.38393 6.97756 8.26786 6.8972 8.11607L5.39723 5.14286H1.71426V22.2857ZM18.8568 12C19.5622 12 20.2273 12.1339 20.8523 12.4018C21.4773 12.6696 22.0219 13.0357 22.4862 13.5C22.9505 13.9643 23.321 14.5134 23.5978 15.1473C23.8746 15.7813 24.0085 16.4464 23.9996 17.1429C23.9996 17.8571 23.8657 18.5223 23.5978 19.1384C23.33 19.7545 22.9639 20.2991 22.4996 20.7723C22.0353 21.2455 21.4862 21.6161 20.8523 21.8839C20.2184 22.1518 19.5532 22.2857 18.8568 22.2857C18.3211 22.2857 17.8033 22.2054 17.3033 22.0446C16.8033 21.8839 16.3301 21.6429 15.8837 21.3214L10.0311 27.1741C9.86144 27.3438 9.66055 27.4286 9.42841 27.4286C9.19627 27.4286 8.99538 27.3438 8.82574 27.1741C8.6561 27.0045 8.57128 26.8036 8.57128 26.5714C8.57128 26.3304 8.6561 26.125 8.82574 25.9554L14.6649 20.1161C14.3614 19.6786 14.1292 19.2098 13.9685 18.7098C13.8078 18.2098 13.723 17.6875 13.714 17.1429C13.714 16.4375 13.848 15.7723 14.1158 15.1473C14.3837 14.5223 14.7497 13.9777 15.214 13.5134C15.6783 13.0491 16.2229 12.6786 16.8479 12.4018C17.4729 12.125 18.1425 11.9911 18.8568 12ZM18.8568 20.5714C19.33 20.5714 19.772 20.4821 20.1827 20.3036C20.5934 20.125 20.9595 19.8795 21.2809 19.567C21.6023 19.2545 21.8478 18.8929 22.0175 18.4821C22.1871 18.0714 22.2764 17.625 22.2853 17.1429C22.2853 16.6696 22.196 16.2277 22.0175 15.817C21.8389 15.4063 21.5934 15.0402 21.2809 14.7188C20.9684 14.3973 20.6068 14.1518 20.1961 13.9821C19.7854 13.8125 19.3389 13.7232 18.8568 13.7143C18.3836 13.7143 17.9417 13.8036 17.5309 13.9821C17.1202 14.1607 16.7542 14.4063 16.4327 14.7188C16.1113 15.0313 15.8658 15.3929 15.6962 15.8036C15.5265 16.2143 15.4372 16.6607 15.4283 17.1429C15.4283 17.6161 15.5176 18.058 15.6962 18.4688C15.8747 18.8795 16.1203 19.2455 16.4327 19.567C16.7452 19.8884 17.1068 20.1339 17.5176 20.3036C17.9283 20.4732 18.3747 20.5625 18.8568 20.5714Z" />
</svg>
