<svg width="24" height="24" viewBox="0 0 24 24" fill="none" xmlns="http://www.w3.org/2000/svg" fill="#ccd2e3">
<path d="M3.69449 23.9999C3.31236 23.9999 2.92909 23.906 2.61064 23.7183C2.12208 23.4302 1.84523 22.9473 1.85088 22.3943L1.90304 18.3588L1.91849 16.6872C1.73787 16.7826 1.57138 16.8177 1.44312 16.8273C0.937067 16.8779 0.623482 16.69 0.449283 16.5226C-0.0673322 16.0263 -0.0170398 15.1538 0.0240195 14.4529C0.0317415 14.3234 0.0387099 14.2006 0.0400281 14.101L0.0415348 14.005C0.0679022 12.3826 0.0999174 10.3647 0.325922 9.40664C0.634604 7.85223 4.8368 7.79197 6.43515 7.90052C8.71366 8.05543 9.88946 8.59516 9.92991 9.50418L10.141 14.2019C10.1459 14.3044 10.1563 14.4165 10.1682 14.5349C10.2262 15.1265 10.3139 16.02 9.48033 16.4972C9.16393 16.6781 8.8063 16.7118 8.47386 16.5919C8.41811 16.5717 8.36444 16.5478 8.31132 16.5203L8.32809 18.3615L8.38044 22.3944C8.3859 22.9446 8.1162 23.4078 7.61996 23.7007C6.95229 24.0946 5.98067 24.1003 5.31093 23.714C5.21111 23.6566 5.11996 23.592 5.03897 23.5214C4.95328 23.5998 4.85647 23.6706 4.75044 23.7324C4.44025 23.9104 4.06734 24 3.69464 24L3.69449 23.9999ZM2.45731 10.7286H2.46202C2.73191 10.7314 2.94793 10.9528 2.94513 11.2235L2.87884 18.3686L2.82667 22.4049C2.8246 22.6068 2.91518 22.7596 3.10409 22.8704C3.42953 23.0624 3.94051 23.0659 4.26596 22.878C4.51343 22.735 4.54262 22.5494 4.54262 22.4218V22.4197L4.54752 16.5423C4.54752 16.2719 4.76637 16.0524 5.0355 16.0524H5.03625C5.30595 16.0524 5.52403 16.2724 5.52331 16.5438L5.51841 22.4212V22.4228C5.51841 22.5426 5.54779 22.7178 5.79734 22.8615C6.1646 23.0731 6.76124 23.0689 7.12719 22.853C7.37956 22.7044 7.40743 22.5258 7.40592 22.4046L7.35376 18.371L7.28746 11.2238C7.28464 10.9526 7.50141 10.7311 7.77057 10.729H7.77546C8.04309 10.729 8.26045 10.9456 8.26325 11.2155L8.29809 14.9482C8.30092 14.9552 8.30449 14.963 8.30713 14.9705C8.51769 15.5264 8.74144 15.6447 8.80489 15.668C8.84463 15.6826 8.90867 15.6961 8.99794 15.6442C9.23976 15.5054 9.25992 15.2692 9.1972 14.6306C9.18477 14.5045 9.17215 14.3742 9.1665 14.246L8.95537 9.54804C8.89756 9.38347 8.11765 8.9748 6.18474 8.86833C5.05981 8.80583 3.85898 8.86549 2.89094 9.03082C1.71909 9.23062 1.3302 9.5166 1.2814 9.60615C1.28008 9.61259 1.27858 9.61884 1.27726 9.62509C1.07442 10.4725 1.04109 12.5232 1.0166 14.021L1.01528 14.117C1.01321 14.2375 1.00549 14.37 0.99777 14.5102C0.974793 14.902 0.932979 15.6309 1.1232 15.8137C1.16162 15.851 1.23828 15.8635 1.35109 15.8516C1.3575 15.851 1.36371 15.8502 1.37068 15.8502C1.51287 15.8411 1.73304 15.6497 1.92625 15.1402C1.92832 15.134 1.93115 15.1275 1.93379 15.122L1.97014 11.2168C1.97221 10.9462 2.1903 10.729 2.45734 10.729L2.45731 10.7286ZM13.0837 21.9545C11.997 21.9545 10.923 21.7939 9.89292 21.4778C9.63489 21.3986 9.48987 21.1246 9.56879 20.8653C9.64751 20.6059 9.92004 20.4603 10.1779 20.5394C10.8303 20.7398 11.5023 20.8708 12.1831 20.9326C11.6638 20.2983 11.1962 19.5778 10.7864 18.7816C10.6623 18.5413 10.7564 18.2447 10.9954 18.1206C11.2346 17.996 11.5294 18.0905 11.6527 18.331C12.1343 19.2673 12.6997 20.0853 13.3367 20.7678C14.3599 19.6717 15.1803 18.2504 15.7525 16.6306C14.9029 16.4611 14.0017 16.3721 13.0781 16.3721C12.653 16.3721 12.2264 16.391 11.8081 16.4289C11.5391 16.4526 11.3028 16.2536 11.2785 15.9839C11.254 15.714 11.4527 15.4758 11.7211 15.4512C12.1678 15.4104 12.6243 15.3902 13.0781 15.3902C14.1026 15.3902 15.105 15.4947 16.0501 15.6915C16.423 14.3698 16.6397 12.9421 16.6774 11.4675H11.4674C11.1977 11.4675 10.9794 11.2481 10.9794 10.9769C10.9794 10.7057 11.1977 10.4864 11.4674 10.4864H16.676C16.6347 9.01245 16.4146 7.58467 16.0381 6.26433C15.0966 6.45996 14.0977 6.56355 13.0775 6.56355C11.6478 6.56355 10.2769 6.36887 9.00206 5.98405C8.74422 5.90621 8.59789 5.63294 8.67511 5.37294C8.75251 5.11349 9.02428 4.96634 9.28285 5.04418C9.49831 5.10933 9.7164 5.16822 9.93808 5.22144C10.4888 3.60318 11.2687 2.16919 12.2187 1.01907C10.7662 1.14595 9.35613 1.59251 8.09673 2.32846C7.86394 2.46424 7.56488 2.38508 7.42964 2.15025C7.29441 1.91617 7.37313 1.61564 7.60667 1.47965C9.26346 0.511721 11.1579 0 13.0838 0C19.1029 0 24 4.92426 24 10.9767C24 17.0291 19.1029 21.9543 13.0838 21.9543L13.0837 21.9545ZM16.7045 16.86C16.1783 18.3795 15.448 19.7439 14.5453 20.8654C16.5471 20.5675 18.3564 19.6676 19.7847 18.3548C18.9601 17.7087 17.9015 17.2 16.7046 16.86H16.7045ZM16.9966 15.9264C18.3489 16.3146 19.5469 16.9034 20.476 17.6541C21.9578 15.9965 22.8982 13.84 23.0125 11.4684H17.6549C17.6165 13.02 17.3894 14.5269 16.9969 15.9264H16.9966ZM17.6532 10.4868H23.0127C22.8983 8.11594 21.958 5.95871 20.4762 4.30104C19.5451 5.05381 18.3427 5.6432 16.9865 6.03139C17.3816 7.42978 17.6116 8.93649 17.6534 10.4867L17.6532 10.4868ZM10.9051 5.41417C11.6078 5.52628 12.334 5.58234 13.0791 5.58234C13.9978 5.58234 14.8941 5.49409 15.7401 5.32649C15.1679 3.72224 14.3524 2.31497 13.3377 1.22734C12.3222 2.31706 11.4865 3.75465 10.9051 5.41417ZM14.5085 1.08434C15.4203 2.2049 16.1591 3.57377 16.6915 5.09885C17.8939 4.75891 18.9574 4.24873 19.7848 3.60029C18.3476 2.27994 16.5251 1.37659 14.5087 1.08434H14.5085ZM5.02576 7.65115C3.63377 7.65115 2.50185 6.51223 2.50185 5.11325C2.50185 4.20291 2.99059 3.35846 3.77745 2.90695C4.16279 2.67932 4.60481 2.55868 5.05363 2.55868C6.44563 2.55868 7.57755 3.69761 7.57755 5.09659C7.57755 6.00692 7.08827 6.85215 6.30065 7.30288C5.91512 7.53127 5.47459 7.65115 5.02581 7.65115H5.02576ZM5.05364 3.54066C4.77697 3.54066 4.50578 3.61489 4.26958 3.75504C4.26732 3.75655 4.26525 3.75788 4.26261 3.75939C3.77801 4.03607 3.47706 4.55478 3.47706 5.11401C3.47706 5.97266 4.17124 6.6707 5.02497 6.6707C5.30108 6.6707 5.57211 6.59627 5.80923 6.45613C5.8113 6.4548 5.81412 6.45329 5.8162 6.45196C6.3006 6.17585 6.60156 5.65658 6.60156 5.09715C6.60156 4.23869 5.90737 3.54066 5.05364 3.54066Z" />
</svg>
