<svg width="40" height="40" viewBox="0 0 40 40" fill="none" xmlns="http://www.w3.org/2000/svg">
<path d="M10.5451 8.26717C10.7818 7.92422 11.0869 7.63405 11.4414 7.41497C11.7958 7.19589 12.1918 7.05266 12.6044 6.99431C13.9044 6.90502 15.1541 6.45672 16.2144 5.69931C16.47 5.46956 16.8015 5.34246 17.1451 5.34246C17.4888 5.34246 17.8203 5.46956 18.0758 5.69931C19.1353 6.45622 20.384 6.9045 21.683 6.99431C22.0957 7.05257 22.4918 7.19576 22.8464 7.41484C23.2009 7.63392 23.5062 7.92414 23.743 8.26717C24.0225 8.06055 24.3492 7.92688 24.6934 7.87824C25.0376 7.8296 25.3885 7.86753 25.7144 7.9886V6.4286C25.7133 5.48174 25.3366 4.57399 24.6671 3.90447C23.9976 3.23494 23.0898 2.8583 22.143 2.85717H19.2858C19.0964 2.85717 18.9147 2.78191 18.7807 2.64796C18.6468 2.514 18.5715 2.33232 18.5715 2.14288C18.5715 1.95344 18.6468 1.77176 18.7807 1.63781C18.9147 1.50385 19.0964 1.4286 19.2858 1.4286H21.133L22.053 0.508596C22.0949 0.466725 22.1234 0.413304 22.1348 0.355163C22.1462 0.297022 22.14 0.236802 22.117 0.182203C22.0939 0.127603 22.0552 0.0811053 22.0056 0.0486533C21.956 0.0162014 21.8979 -0.000729871 21.8387 2.41308e-05H15.0001C13.2958 0.00210339 11.6619 0.680065 10.4567 1.88521C9.25157 3.09035 8.57361 4.72427 8.57153 6.4286V7.9886C8.8977 7.86715 9.24901 7.82902 9.59364 7.87766C9.93826 7.92631 10.2653 8.06019 10.5451 8.26717Z" fill="#273B69"/>
<path d="M8.57164 31.4285C9.3294 31.4285 10.0561 31.7295 10.5919 32.2653C11.1278 32.8012 11.4288 33.5279 11.4288 34.2856V35.7142C11.4288 36.472 11.1278 37.1987 10.5919 37.7345C10.0561 38.2703 9.3294 38.5714 8.57164 38.5714H8.08235C7.92312 38.9061 7.72715 39.2221 7.49807 39.5135C7.63211 39.6663 7.79722 39.7887 7.98235 39.8726C8.16749 39.9565 8.36839 39.9999 8.57164 39.9999H17.1431V37.8571C17.1431 37.4782 17.2936 37.1148 17.5615 36.8469C17.8294 36.579 18.1928 36.4285 18.5716 36.4285H22.8574V24.8921C21.9576 24.4931 20.9844 24.2865 20.0002 24.2856H19.8988C19.7429 24.8982 19.3873 25.4414 18.8883 25.8293C18.3892 26.2172 17.7752 26.4278 17.1431 26.4278C16.511 26.4278 15.8969 26.2172 15.3979 25.8293C14.8988 25.4414 14.5433 24.8982 14.3874 24.2856H14.2859C13.3477 24.285 12.4186 24.4693 11.5517 24.828C10.6848 25.1868 9.8971 25.7129 9.2337 26.3763C8.57029 27.0397 8.04418 27.8274 7.68545 28.6943C7.32672 29.5612 7.14241 30.4903 7.14307 31.4285H8.57164Z" fill="#273B69"/>
<path d="M15.7144 22.0093V23.5714C15.7144 23.9503 15.8649 24.3137 16.1328 24.5816C16.4007 24.8495 16.764 25 17.1429 25C17.5218 25 17.8852 24.8495 18.1531 24.5816C18.421 24.3137 18.5715 23.9503 18.5715 23.5714V22.0093C17.6274 22.1874 16.6584 22.1874 15.7144 22.0093Z" fill="#273B69"/>
<path d="M22.8572 37.8569H18.5715V39.9998H22.8572V37.8569Z" fill="#273B69"/>
<path d="M10.0001 35.7141V34.2855C10.0001 33.9066 9.84961 33.5433 9.5817 33.2754C9.31379 33.0074 8.95043 32.8569 8.57155 32.8569V36.4284C8.56954 36.6675 8.55045 36.9062 8.5144 37.1426H8.57155C8.95043 37.1426 9.31379 36.9921 9.5817 36.7242C9.84961 36.4563 10.0001 36.093 10.0001 35.7141Z" fill="#273B69"/>
<path d="M24.2859 24.2856V36.4284H40.0002V24.2856C40.0002 24.0961 39.9249 23.9145 39.791 23.7805C39.657 23.6465 39.4753 23.5713 39.2859 23.5713H25.0002C24.8107 23.5713 24.6291 23.6465 24.4951 23.7805C24.3611 23.9145 24.2859 24.0961 24.2859 24.2856ZM32.143 26.4284C34.5066 26.4284 36.4287 28.0306 36.4287 29.9999C36.4287 31.9691 34.5066 33.5713 32.143 33.5713C29.7795 33.5713 27.8573 31.9691 27.8573 29.9999C27.8573 28.0306 29.7795 26.4284 32.143 26.4284Z" fill="#273B69"/>
<path d="M3.57167 39.9998C4.51853 39.9987 5.42627 39.622 6.0958 38.9525C6.76533 38.283 7.14197 37.3752 7.1431 36.4284V32.8569H0.000244141V36.4284C0.00137832 37.3752 0.378017 38.283 1.04754 38.9525C1.71707 39.622 2.62482 39.9987 3.57167 39.9998ZM1.42882 34.9998C1.42882 34.8104 1.50407 34.6287 1.63803 34.4947C1.77198 34.3608 1.95366 34.2855 2.1431 34.2855C2.33254 34.2855 2.51422 34.3608 2.64818 34.4947C2.78213 34.6287 2.85739 34.8104 2.85739 34.9998V36.4284C2.85739 36.6178 2.93264 36.7995 3.0666 36.9334C3.20055 37.0674 3.38223 37.1426 3.57167 37.1426C3.76111 37.1426 3.94279 37.2179 4.07675 37.3519C4.2107 37.4858 4.28596 37.6675 4.28596 37.8569C4.28596 38.0464 4.2107 38.2281 4.07675 38.362C3.94279 38.496 3.76111 38.5712 3.57167 38.5712C3.00335 38.5712 2.45831 38.3455 2.05644 37.9436C1.65458 37.5417 1.42882 36.9967 1.42882 36.4284V34.9998Z" fill="#273B69"/>
<path d="M10.0001 13.5714C10.1895 13.5714 10.3712 13.6466 10.5052 13.7806C10.6391 13.9145 10.7144 14.0962 10.7144 14.2856C10.7144 15.9906 11.3917 17.6257 12.5973 18.8313C13.8029 20.0369 15.438 20.7142 17.143 20.7142C18.8479 20.7142 20.4831 20.0369 21.6886 18.8313C22.8942 17.6257 23.5715 15.9906 23.5715 14.2856C23.5715 14.0962 23.6468 13.9145 23.7807 13.7806C23.9147 13.6466 24.0964 13.5714 24.2858 13.5714C24.6647 13.5714 25.0281 13.4208 25.296 13.1529C25.5639 12.885 25.7144 12.5217 25.7144 12.1428V9.99993C25.7144 9.81049 25.6391 9.62881 25.5052 9.49485C25.3712 9.3609 25.1895 9.28564 25.0001 9.28564C24.8107 9.28564 24.629 9.3609 24.495 9.49485C24.3611 9.62881 24.2858 9.81049 24.2858 9.99993C24.2858 10.1894 24.2106 10.3711 24.0766 10.505C23.9427 10.639 23.761 10.7142 23.5715 10.7142C23.3821 10.7142 23.2004 10.639 23.0665 10.505C22.9325 10.3711 22.8572 10.1894 22.8572 9.99993C22.8576 9.61393 22.719 9.2407 22.4667 8.94849C22.2145 8.65628 21.8656 8.4646 21.4837 8.4085C19.9119 8.29142 18.4061 7.72845 17.143 6.78564C15.8799 7.72934 14.3738 8.29307 12.8015 8.41064C12.4201 8.46685 12.0716 8.65828 11.8196 8.95003C11.5676 9.24178 11.4288 9.6144 11.4287 9.99993C11.4287 10.1894 11.3534 10.3711 11.2195 10.505C11.0855 10.639 10.9038 10.7142 10.7144 10.7142C10.525 10.7142 10.3433 10.639 10.2093 10.505C10.0754 10.3711 10.0001 10.1894 10.0001 9.99993C10.0001 9.81049 9.92485 9.62881 9.7909 9.49485C9.65694 9.3609 9.47526 9.28564 9.28582 9.28564C9.09638 9.28564 8.9147 9.3609 8.78074 9.49485C8.64679 9.62881 8.57153 9.81049 8.57153 9.99993V12.1428C8.57153 12.5217 8.72204 12.885 8.98995 13.1529C9.25786 13.4208 9.62122 13.5714 10.0001 13.5714ZM13.8572 15.8571C13.9323 15.8008 14.0177 15.7598 14.1085 15.7366C14.1994 15.7133 14.294 15.7081 14.3868 15.7214C14.4797 15.7347 14.569 15.7661 14.6497 15.8139C14.7305 15.8617 14.801 15.9249 14.8572 15.9999C15.1234 16.3548 15.4685 16.6428 15.8652 16.8412C16.2619 17.0395 16.6994 17.1428 17.143 17.1428C17.5865 17.1428 18.024 17.0395 18.4207 16.8412C18.8174 16.6428 19.1625 16.3548 19.4287 15.9999C19.5423 15.8484 19.7116 15.7482 19.8991 15.7214C20.0866 15.6946 20.2771 15.7434 20.4287 15.8571C20.5802 15.9707 20.6804 16.1399 20.7072 16.3275C20.734 16.515 20.6852 16.7055 20.5715 16.8571C20.1723 17.3893 19.6547 17.8214 19.0596 18.1189C18.4645 18.4165 17.8083 18.5714 17.143 18.5714C16.4776 18.5714 15.8214 18.4165 15.2263 18.1189C14.6312 17.8214 14.1136 17.3893 13.7144 16.8571C13.6007 16.7055 13.5519 16.515 13.5787 16.3275C13.6055 16.1399 13.7057 15.9707 13.8572 15.8571Z" fill="#273B69"/>
<path d="M32.143 32.1426C33.721 32.1426 35.0002 31.1833 35.0002 29.9998C35.0002 28.8163 33.721 27.8569 32.143 27.8569C30.5651 27.8569 29.2859 28.8163 29.2859 29.9998C29.2859 31.1833 30.5651 32.1426 32.143 32.1426Z" fill="#273B69"/>
<path d="M40.0002 37.8569H24.2859V39.9998H40.0002V37.8569Z" fill="#273B69"/>
<path d="M0.000244694 29.2856C0.000244694 29.4751 0.0754996 29.6568 0.209454 29.7907C0.343409 29.9247 0.52509 29.9999 0.71453 29.9999C0.903971 29.9999 1.08565 29.9247 1.21961 29.7907C1.35356 29.6568 1.42882 29.4751 1.42882 29.2856C1.42192 29.0391 1.50637 28.7987 1.66596 28.6106C1.97606 28.184 2.14309 27.6702 2.14309 27.1428C2.14309 26.6154 1.97606 26.1015 1.66596 25.6749C1.50637 25.4869 1.42192 25.2465 1.42882 24.9999C1.42882 24.8105 1.35356 24.6288 1.21961 24.4949C1.08565 24.3609 0.903971 24.2856 0.71453 24.2856C0.52509 24.2856 0.343409 24.3609 0.209454 24.4949C0.0754996 24.6288 0.000244694 24.8105 0.000244694 24.9999C-0.00731493 25.5285 0.160476 26.0447 0.477388 26.4678C0.630874 26.6593 0.714514 26.8974 0.714514 27.1428C0.714514 27.3882 0.630874 27.6263 0.477388 27.8178C0.160476 28.2409 -0.00731493 28.7571 0.000244694 29.2856Z" fill="#273B69"/>
<path d="M3.57178 27.1431C3.57178 27.3325 3.64703 27.5142 3.78099 27.6481C3.91494 27.7821 4.09662 27.8574 4.28606 27.8574C4.4755 27.8574 4.65719 27.7821 4.79114 27.6481C4.92509 27.5142 5.00035 27.3325 5.00035 27.1431C4.99345 26.8965 5.07791 26.6561 5.23749 26.4681C5.5476 26.0415 5.71463 25.5276 5.71463 25.0002C5.71463 24.4728 5.5476 23.959 5.23749 23.5324C5.07791 23.3443 4.99345 23.1039 5.00035 22.8574C5.00035 22.6679 4.92509 22.4862 4.79114 22.3523C4.65719 22.2183 4.4755 22.1431 4.28606 22.1431C4.09662 22.1431 3.91494 22.2183 3.78099 22.3523C3.64703 22.4862 3.57178 22.6679 3.57178 22.8574C3.56422 23.3859 3.73201 23.9021 4.04892 24.3252C4.20241 24.5167 4.28605 24.7548 4.28605 25.0002C4.28605 25.2456 4.20241 25.4837 4.04892 25.6752C3.73201 26.0983 3.56422 26.6145 3.57178 27.1431Z" fill="#273B69"/>
</svg>
