<svg width="18" height="18" viewBox="0 0 18 18" fill="rgba(28, 31, 55, 0.8)" xmlns="http://www.w3.org/2000/svg">
<path fill-rule="evenodd" clip-rule="evenodd" d="M6.707 12.707L14.5 4.91401L16.293 6.70701C16.4328 6.84681 16.611 6.94202 16.805 6.98059C16.9989 7.01916 17.1999 6.99935 17.3826 6.92368C17.5653 6.84801 17.7215 6.71987 17.8314 6.55546C17.9413 6.39105 18 6.19776 18 6.00001V1.00001L17.999 0.952007C17.9876 0.695032 17.8773 0.452418 17.6911 0.274965C17.5049 0.0975114 17.2572 -0.00101788 17 7.9302e-06H12C11.8022 5.01545e-05 11.6089 0.058722 11.4445 0.168606C11.2801 0.278491 11.152 0.434653 11.0763 0.617353C11.0006 0.800053 10.9808 1.00109 11.0194 1.19504C11.058 1.38899 11.1532 1.56716 11.293 1.70701L13.086 3.50001L5.293 11.293C5.19749 11.3852 5.12131 11.4956 5.0689 11.6176C5.01649 11.7396 4.9889 11.8708 4.98775 12.0036C4.98659 12.1364 5.0119 12.2681 5.06218 12.391C5.11246 12.5139 5.18671 12.6255 5.2806 12.7194C5.3745 12.8133 5.48615 12.8875 5.60904 12.9378C5.73194 12.9881 5.86362 13.0134 5.9964 13.0123C6.12918 13.0111 6.2604 12.9835 6.3824 12.9311C6.50441 12.8787 6.61475 12.8025 6.707 12.707ZM1 7.9302e-06C0.734783 7.9302e-06 0.480429 0.105365 0.292893 0.292901C0.105357 0.480437 0 0.734791 0 1.00001V15C0 15.7957 0.31607 16.5587 0.878679 17.1213C1.44129 17.6839 2.20435 18 3 18H15C15.7956 18 16.5587 17.6839 17.1213 17.1213C17.6839 16.5587 18 15.7957 18 15V10C18 9.73479 17.8946 9.48043 17.7071 9.2929C17.5196 9.10536 17.2652 9 17 9C16.7348 9 16.4804 9.10536 16.2929 9.2929C16.1053 9.48043 16 9.73479 16 10V15C16 15.2652 15.8946 15.5196 15.7071 15.7071C15.5196 15.8946 15.2652 16 15 16H3C2.73478 16 2.48043 15.8946 2.29289 15.7071C2.10536 15.5196 2 15.2652 2 15V2.00001H8C8.26521 2.00001 8.51957 1.89465 8.7071 1.70711C8.89464 1.51958 9 1.26522 9 1.00001C9 0.734791 8.89464 0.480437 8.7071 0.292901C8.51957 0.105365 8.26521 7.9302e-06 8 7.9302e-06H1Z"/>
</svg>
